{"title":"Planes Fire And Rescue 2014 CAM XviD-x264-STINKBOMB","uid":10688122,"size":409871044,"categoryP":"video","categoryS":"movies","magnet":"?xt=urn:btih:adc770942b04e240b19f73d4753833bf09dacadb&amp;dn=+Planes+Fire+And+Rescue+2014+CAM+XviD-x264-STINKBOMB+&amp;tr=udp%3A%2F%2Ftracker.openbittorrent.com%3A80&amp;tr=udp%3A%2F%2Fopen.demonii.com%3A1337&amp;tr=udp%3A%2F%2Ftracker.coppersurfer.tk%3A6969&amp;tr=udp%3A%2F%2Fexodus.desync.com%3A6969","seeders":2,"leechers":0,"uploader":"SBXero","files":1,"time":1407091742,"description":"~General~\n\nFormat: AVI\n\nFormat/Info: Audio Video Interleave\n\nFile size: 391 MiB\n\nDuration: 1h 13mn\n\nOverall bit rate: 739 Kbps\n\n~Video~\n\nFormat: AVC\nFormat/Info: Advanced Video Codec\nFormat profile: &lt;a class=&quot;__cf_email__&quot; href=&quot;/cdn-cgi/l/email-protection&quot; data-cfemail=&quot;e6ae8f818ea6aad5c8d6&quot;&gt;[email&amp;#160;protected]&lt;/a&gt;&lt;script cf-hash='f9e31' type=&quot;text/javascript&quot;&gt;\n/* &lt;![CDATA[ */!function(){try{var t=&quot;currentScript&quot;in document?document.currentScript:function(){for(var t=document.getElementsByTagName(&quot;script&quot;),e=t.length;e--;)if(t[e].getAttribute(&quot;cf-hash&quot;))return t[e]}();if(t&amp;&amp;t.previousSibling){var e,r,n,i,c=t.previousSibling,a=c.getAttribute(&quot;data-cfemail&quot;);if(a){for(e=&quot;&quot;,r=parseInt(a.substr(0,2),16),n=2;a.length-n;n+=2)i=parseInt(a.substr(n,2),16)^r,e+=String.fromCharCode(i);e=document.createTextNode(e),c.parentNode.replaceChild(e,c)}}}catch(u){}}();/* ]]&gt; */&lt;/script&gt;\nFormat settings, CABAC: Yes\nFormat settings, ReFrames: 4 frames\nCodec ID: H264\nDuration: 1h 13mn\nBit rate: 600 Kbps\nWidth: 720 pixels\nHeight: 384 pixels\nDisplay aspect ratio: 1.85:1\nFrame rate mode: Variable\nFrame rate: 23.976 fps\nColor space: YUV\nChroma subsampling: 4:2:0\nBit depth: 8 bits\nScan type: Progressive\nBits/(Pixel*Frame): 0.091\nStream size: 318 MiB (81%)\nWriting library: x264 core 120 r2120 0c7dab9\n\n\n~Audio~\n\nFormat: AC-3\nFormat/Info: Audio Coding 3\nMode extension: CM (complete main)\nFormat settings, Endianness: Big\nCodec ID: 2000\nDuration: 1h 13mn\nSource duration: 1h 13mn\nBit rate mode: Constant\nBit rate: 128 Kbps\nChannel(s): 2 channels\nChannel positions: Front: L R\nSampling rate: 48.0 KHz\nBit depth: 16 bits\nCompression mode: Lossy\nStream size: 67.7 MiB (17%)\nAlignment: Aligned on interleaves\nInterleave, duration: 32 ms (0.77 video frame)\n\n~Cast~\nDirector: Roberts Gannaway\nWriter: Jeffrey M. Howard (characters)\nStars: Dane Cook, Ed Harris, Julie Bowen\n\n~Plot~\nWhen Dusty learns that his engine is damaged and he may never race again, he joins a forest fire and rescue unit to be trained as a firefighter.\n\nScreens&gt;&gt;&gt;\n &lt;a href=&quot;\nhttp://postimg.org/image/g0u72x6l1/&quot; rel=&quot;nofollow&quot; target=&quot;_NEW&quot;&gt;\nhttp://postimg.org/image/g0u72x6l1/&lt;/a&gt;\n &lt;a href=&quot;\nhttp://postimg.org/image/exa2qylxx/&quot; rel=&quot;nofollow&quot; target=&quot;_NEW&quot;&gt;\nhttp://postimg.org/image/exa2qylxx/&lt;/a&gt;\n &lt;a href=&quot;\nhttp://postimg.org/image/g4o0j6c2d/&quot; rel=&quot;nofollow&quot; target=&quot;_NEW&quot;&gt;\nhttp://postimg.org/image/g4o0j6c2d/&lt;/a&gt;\n &lt;a href=&quot;\nhttp://postimg.org/image/ikptx0u51/&quot; rel=&quot;nofollow&quot; target=&quot;_NEW&quot;&gt;\nhttp://postimg.org/image/ikptx0u51/&lt;/a&gt;\n &lt;a href=&quot;\nhttp://postimg.org/image/64t43a0t1/&quot; rel=&quot;nofollow&quot; target=&quot;_NEW&quot;&gt;\nhttp://postimg.org/image/64t43a0t1/&lt;/a&gt;","torrent":{"xt":"urn:btih:adc770942b04e240b19f73d4753833bf09dacadb","amp;dn":"+Planes+Fire+And+Rescue+2014+CAM+XviD-x264-STINKBOMB+","amp;tr":["udp%3A%2F%2Ftracker.openbittorrent.com%3A80","udp%3A%2F%2Fopen.demonii.com%3A1337","udp%3A%2F%2Ftracker.coppersurfer.tk%3A6969","udp%3A%2F%2Fexodus.desync.com%3A6969"],"infoHash":"adc770942b04e240b19f73d4753833bf09dacadb","infoHashBuffer":{"type":"Buffer","data":[173,199,112,148,43,4,226,64,177,159,115,212,117,56,51,191,9,218,202,219]},"announce":[],"urlList":[]}}